<svg width="1000" height="1000" viewBox="0 0 1000 1000" fill="none" xmlns="http://www.w3.org/2000/svg">

<rect x="11" y="378" width="123" height="123" fill="#FE5BD3"/>
<rect x="11" y="501" width="123" height="121" fill="#FE5BD3"/>
<rect x="134" y="134" width="121" height="121" fill="#FE5BD3"/>
<rect x="134" y="255" width="121" height="123" fill="#FE5BD3"/>
<rect x="134" y="378" width="121" height="123" fill="#FE5BD3"/>
<rect x="134" y="501" width="121" height="121" fill="#FE5BD3"/>
<rect x="134" y="622" width="121" height="123" fill="#FE5BD3"/>
<rect x="134" y="745" width="121" height="121" fill="#FE5BD3"/>
<rect x="255" y="134" width="123" height="121" fill="#FE5BD3"/>
<rect x="255" y="255" width="123" height="123" fill="#FE5BD3"/>
<rect x="255" y="378" width="123" height="123" fill="#FE5BD3"/>
<rect x="255" y="501" width="123" height="121" fill="#FE5BD3"/>
<rect x="255" y="622" width="123" height="123" fill="#FE5BD3"/>
<rect x="255" y="745" width="123" height="121" fill="#FE5BD3"/>
<rect x="378" y="11" width="123" height="123" fill="#FE5BD3"/>
<rect x="378" y="134" width="123" height="121" fill="#FE5BD3"/>
<rect x="378" y="255" width="123" height="123" fill="#FE5BD3"/>
<rect x="378" y="378" width="123" height="123" fill="#FE5BD3"/>
<rect x="378" y="501" width="123" height="121" fill="#FE5BD3"/>
<rect x="378" y="622" width="123" height="123" fill="#FE5BD3"/>
<rect x="378" y="745" width="123" height="121" fill="#FE5BD3"/>
<rect x="378" y="866" width="123" height="123" fill="#FE5BD3"/>
<rect x="501" y="11" width="121" height="123" fill="#FE5BD3"/>
<rect x="501" y="134" width="121" height="121" fill="#FE5BD3"/>
<rect x="501" y="255" width="121" height="123" fill="#FE5BD3"/>
<rect x="501" y="378" width="121" height="123" fill="#FE5BD3"/>
<rect x="501" y="501" width="121" height="121" fill="#FE5BD3"/>
<rect x="501" y="622" width="121" height="123" fill="#FE5BD3"/>
<rect x="501" y="745" width="121" height="121" fill="#FE5BD3"/>
<rect x="501" y="866" width="121" height="123" fill="#FE5BD3"/>
<rect x="622" y="134" width="123" height="121" fill="#FE5BD3"/>
<rect x="622" y="255" width="123" height="123" fill="#FE5BD3"/>
<rect x="622" y="378" width="123" height="123" fill="#FE5BD3"/>
<rect x="622" y="501" width="123" height="121" fill="#FE5BD3"/>
<rect x="622" y="622" width="123" height="123" fill="#FE5BD3"/>
<rect x="622" y="745" width="123" height="121" fill="#FE5BD3"/>
<rect x="745" y="134" width="121" height="121" fill="#FE5BD3"/>
<rect x="745" y="255" width="121" height="123" fill="#FE5BD3"/>
<rect x="745" y="378" width="121" height="123" fill="#FE5BD3"/>
<rect x="745" y="501" width="121" height="121" fill="#FE5BD3"/>
<rect x="745" y="622" width="121" height="123" fill="#FE5BD3"/>
<rect x="745" y="745" width="121" height="121" fill="#FE5BD3"/>
<rect x="866" y="378" width="123" height="123" fill="#FE5BD3"/>
<rect x="866" y="501" width="123" height="121" fill="#FE5BD3"/>
</svg>
